<svg width="1728" height="1042" viewBox="0 0 1728 1042" fill="none" xmlns="http://www.w3.org/2000/svg">
<mask id="mask0_170624_5348" style="mask-type:alpha" maskUnits="userSpaceOnUse" x="0" y="0" width="1728" height="1042">
<line y1="1" x2="1728" y2="1" stroke="white" stroke-width="2" stroke-dasharray="2 2"/>
<line y1="5" x2="1728" y2="5" stroke="white" stroke-width="2" stroke-dasharray="2 2"/>
<line y1="9" x2="1728" y2="9" stroke="white" stroke-width="2" stroke-dasharray="2 2"/>
<line y1="13" x2="1728" y2="13" stroke="white" stroke-width="2" stroke-dasharray="2 2"/>
<line y1="17" x2="1728" y2="17" stroke="white" stroke-width="2" stroke-dasharray="2 2"/>
<line y1="21" x2="1728" y2="21" stroke="white" stroke-width="2" stroke-dasharray="2 2"/>
<line y1="25" x2="1728" y2="25" stroke="white" stroke-width="2" stroke-dasharray="2 2"/>
<line y1="29" x2="1728" y2="29" stroke="white" stroke-width="2" stroke-dasharray="2 2"/>
<line y1="33" x2="1728" y2="33" stroke="white" stroke-width="2" stroke-dasharray="2 2"/>
<line y1="37" x2="1728" y2="37" stroke="white" stroke-width="2" stroke-dasharray="2 2"/>
<line y1="41" x2="1728" y2="41" stroke="white" stroke-width="2" stroke-dasharray="2 2"/>
<line y1="45" x2="1728" y2="45" stroke="white" stroke-width="2" stroke-dasharray="2 2"/>
<line y1="49" x2="1728" y2="49" stroke="white" stroke-width="2" stroke-dasharray="2 2"/>
<line y1="53" x2="1728" y2="53" stroke="white" stroke-width="2" stroke-dasharray="2 2"/>
<line y1="57" x2="1728" y2="57" stroke="white" stroke-width="2" stroke-dasharray="2 2"/>
<line y1="61" x2="1728" y2="61" stroke="white" stroke-width="2" stroke-dasharray="2 2"/>
<line y1="65" x2="1728" y2="65" stroke="white" stroke-width="2" stroke-dasharray="2 2"/>
<line y1="69" x2="1728" y2="69" stroke="white" stroke-width="2" stroke-dasharray="2 2"/>
<line y1="73" x2="1728" y2="73" stroke="white" stroke-width="2" stroke-dasharray="2 2"/>
<line y1="77" x2="1728" y2="77" stroke="white" stroke-width="2" stroke-dasharray="2 2"/>
<line y1="81" x2="1728" y2="81" stroke="white" stroke-width="2" stroke-dasharray="2 2"/>
<line y1="85" x2="1728" y2="85" stroke="white" stroke-width="2" stroke-dasharray="2 2"/>
<line y1="89" x2="1728" y2="89" stroke="white" stroke-width="2" stroke-dasharray="2 2"/>
<line y1="93" x2="1728" y2="93" stroke="white" stroke-width="2" stroke-dasharray="2 2"/>
<line y1="97" x2="1728" y2="97" stroke="white" stroke-width="2" stroke-dasharray="2 2"/>
<line y1="101" x2="1728" y2="101" stroke="white" stroke-width="2" stroke-dasharray="2 2"/>
<line y1="105" x2="1728" y2="105" stroke="white" stroke-width="2" stroke-dasharray="2 2"/>
<line y1="109" x2="1728" y2="109" stroke="white" stroke-width="2" stroke-dasharray="2 2"/>
<line y1="113" x2="1728" y2="113" stroke="white" stroke-width="2" stroke-dasharray="2 2"/>
<line y1="117" x2="1728" y2="117" stroke="white" stroke-width="2" stroke-dasharray="2 2"/>
<line y1="121" x2="1728" y2="121" stroke="white" stroke-width="2" stroke-dasharray="2 2"/>
<line y1="125" x2="1728" y2="125" stroke="white" stroke-width="2" stroke-dasharray="2 2"/>
<line y1="129" x2="1728" y2="129" stroke="white" stroke-width="2" stroke-dasharray="2 2"/>
<line y1="133" x2="1728" y2="133" stroke="white" stroke-width="2" stroke-dasharray="2 2"/>
<line y1="137" x2="1728" y2="137" stroke="white" stroke-width="2" stroke-dasharray="2 2"/>
<line y1="141" x2="1728" y2="141" stroke="white" stroke-width="2" stroke-dasharray="2 2"/>
<line y1="145" x2="1728" y2="145" stroke="white" stroke-width="2" stroke-dasharray="2 2"/>
<line y1="149" x2="1728" y2="149" stroke="white" stroke-width="2" stroke-dasharray="2 2"/>
<line y1="153" x2="1728" y2="153" stroke="white" stroke-width="2" stroke-dasharray="2 2"/>
<line y1="157" x2="1728" y2="157" stroke="white" stroke-width="2" stroke-dasharray="2 2"/>
<line y1="161" x2="1728" y2="161" stroke="white" stroke-width="2" stroke-dasharray="2 2"/>
<line y1="165" x2="1728" y2="165" stroke="white" stroke-width="2" stroke-dasharray="2 2"/>
<line y1="169" x2="1728" y2="169" stroke="white" stroke-width="2" stroke-dasharray="2 2"/>
<line y1="173" x2="1728" y2="173" stroke="white" stroke-width="2" stroke-dasharray="2 2"/>
<line y1="177" x2="1728" y2="177" stroke="white" stroke-width="2" stroke-dasharray="2 2"/>
<line y1="181" x2="1728" y2="181" stroke="white" stroke-width="2" stroke-dasharray="2 2"/>
<line y1="185" x2="1728" y2="185" stroke="white" stroke-width="2" stroke-dasharray="2 2"/>
<line y1="189" x2="1728" y2="189" stroke="white" stroke-width="2" stroke-dasharray="2 2"/>
<line y1="193" x2="1728" y2="193" stroke="white" stroke-width="2" stroke-dasharray="2 2"/>
<line y1="197" x2="1728" y2="197" stroke="white" stroke-width="2" stroke-dasharray="2 2"/>
<line y1="201" x2="1728" y2="201" stroke="white" stroke-width="2" stroke-dasharray="2 2"/>
<line y1="205" x2="1728" y2="205" stroke="white" stroke-width="2" stroke-dasharray="2 2"/>
<line y1="209" x2="1728" y2="209" stroke="white" stroke-width="2" stroke-dasharray="2 2"/>
<line y1="213" x2="1728" y2="213" stroke="white" stroke-width="2" stroke-dasharray="2 2"/>
<line y1="217" x2="1728" y2="217" stroke="white" stroke-width="2" stroke-dasharray="2 2"/>
<line y1="221" x2="1728" y2="221" stroke="white" stroke-width="2" stroke-dasharray="2 2"/>
<line y1="225" x2="1728" y2="225" stroke="white" stroke-width="2" stroke-dasharray="2 2"/>
<line y1="229" x2="1728" y2="229" stroke="white" stroke-width="2" stroke-dasharray="2 2"/>
<line y1="233" x2="1728" y2="233" stroke="white" stroke-width="2" stroke-dasharray="2 2"/>
<line y1="237" x2="1728" y2="237" stroke="white" stroke-width="2" stroke-dasharray="2 2"/>
<line y1="241" x2="1728" y2="241" stroke="white" stroke-width="2" stroke-dasharray="2 2"/>
<line y1="245" x2="1728" y2="245" stroke="white" stroke-width="2" stroke-dasharray="2 2"/>
<line y1="249" x2="1728" y2="249" stroke="white" stroke-width="2" stroke-dasharray="2 2"/>
<line y1="253" x2="1728" y2="253" stroke="white" stroke-width="2" stroke-dasharray="2 2"/>
<line y1="257" x2="1728" y2="257" stroke="white" stroke-width="2" stroke-dasharray="2 2"/>
<line y1="261" x2="1728" y2="261" stroke="white" stroke-width="2" stroke-dasharray="2 2"/>
<line y1="265" x2="1728" y2="265" stroke="white" stroke-width="2" stroke-dasharray="2 2"/>
<line y1="269" x2="1728" y2="269" stroke="white" stroke-width="2" stroke-dasharray="2 2"/>
<line y1="273" x2="1728" y2="273" stroke="white" stroke-width="2" stroke-dasharray="2 2"/>
<line y1="277" x2="1728" y2="277" stroke="white" stroke-width="2" stroke-dasharray="2 2"/>
<line y1="281" x2="1728" y2="281" stroke="white" stroke-width="2" stroke-dasharray="2 2"/>
<line y1="285" x2="1728" y2="285" stroke="white" stroke-width="2" stroke-dasharray="2 2"/>
<line y1="289" x2="1728" y2="289" stroke="white" stroke-width="2" stroke-dasharray="2 2"/>
<line y1="293" x2="1728" y2="293" stroke="white" stroke-width="2" stroke-dasharray="2 2"/>
<line y1="297" x2="1728" y2="297" stroke="white" stroke-width="2" stroke-dasharray="2 2"/>
<line y1="301" x2="1728" y2="301" stroke="white" stroke-width="2" stroke-dasharray="2 2"/>
<line y1="305" x2="1728" y2="305" stroke="white" stroke-width="2" stroke-dasharray="2 2"/>
<line y1="309" x2="1728" y2="309" stroke="white" stroke-width="2" stroke-dasharray="2 2"/>
<line y1="313" x2="1728" y2="313" stroke="white" stroke-width="2" stroke-dasharray="2 2"/>
<line y1="317" x2="1728" y2="317" stroke="white" stroke-width="2" stroke-dasharray="2 2"/>
<line y1="321" x2="1728" y2="321" stroke="white" stroke-width="2" stroke-dasharray="2 2"/>
<line y1="325" x2="1728" y2="325" stroke="white" stroke-width="2" stroke-dasharray="2 2"/>
<line y1="329" x2="1728" y2="329" stroke="white" stroke-width="2" stroke-dasharray="2 2"/>
<line y1="333" x2="1728" y2="333" stroke="white" stroke-width="2" stroke-dasharray="2 2"/>
<line y1="337" x2="1728" y2="337" stroke="white" stroke-width="2" stroke-dasharray="2 2"/>
<line y1="341" x2="1728" y2="341" stroke="white" stroke-width="2" stroke-dasharray="2 2"/>
<line y1="345" x2="1728" y2="345" stroke="white" stroke-width="2" stroke-dasharray="2 2"/>
<line y1="349" x2="1728" y2="349" stroke="white" stroke-width="2" stroke-dasharray="2 2"/>
<line y1="353" x2="1728" y2="353" stroke="white" stroke-width="2" stroke-dasharray="2 2"/>
<line y1="357" x2="1728" y2="357" stroke="white" stroke-width="2" stroke-dasharray="2 2"/>
<line y1="361" x2="1728" y2="361" stroke="white" stroke-width="2" stroke-dasharray="2 2"/>
<line y1="365" x2="1728" y2="365" stroke="white" stroke-width="2" stroke-dasharray="2 2"/>
<line y1="369" x2="1728" y2="369" stroke="white" stroke-width="2" stroke-dasharray="2 2"/>
<line y1="373" x2="1728" y2="373" stroke="white" stroke-width="2" stroke-dasharray="2 2"/>
<line y1="377" x2="1728" y2="377" stroke="white" stroke-width="2" stroke-dasharray="2 2"/>
<line y1="381" x2="1728" y2="381" stroke="white" stroke-width="2" stroke-dasharray="2 2"/>
<line y1="385" x2="1728" y2="385" stroke="white" stroke-width="2" stroke-dasharray="2 2"/>
<line y1="389" x2="1728" y2="389" stroke="white" stroke-width="2" stroke-dasharray="2 2"/>
<line y1="393" x2="1728" y2="393" stroke="white" stroke-width="2" stroke-dasharray="2 2"/>
<line y1="397" x2="1728" y2="397" stroke="white" stroke-width="2" stroke-dasharray="2 2"/>
<line y1="401" x2="1728" y2="401" stroke="white" stroke-width="2" stroke-dasharray="2 2"/>
<line y1="405" x2="1728" y2="405" stroke="white" stroke-width="2" stroke-dasharray="2 2"/>
<line y1="409" x2="1728" y2="409" stroke="white" stroke-width="2" stroke-dasharray="2 2"/>
<line y1="413" x2="1728" y2="413" stroke="white" stroke-width="2" stroke-dasharray="2 2"/>
<line y1="417" x2="1728" y2="417" stroke="white" stroke-width="2" stroke-dasharray="2 2"/>
<line y1="421" x2="1728" y2="421" stroke="white" stroke-width="2" stroke-dasharray="2 2"/>
<line y1="425" x2="1728" y2="425" stroke="white" stroke-width="2" stroke-dasharray="2 2"/>
<line y1="429" x2="1728" y2="429" stroke="white" stroke-width="2" stroke-dasharray="2 2"/>
<line y1="433" x2="1728" y2="433" stroke="white" stroke-width="2" stroke-dasharray="2 2"/>
<line y1="437" x2="1728" y2="437" stroke="white" stroke-width="2" stroke-dasharray="2 2"/>
<line y1="441" x2="1728" y2="441" stroke="white" stroke-width="2" stroke-dasharray="2 2"/>
<line y1="445" x2="1728" y2="445" stroke="white" stroke-width="2" stroke-dasharray="2 2"/>
<line y1="449" x2="1728" y2="449" stroke="white" stroke-width="2" stroke-dasharray="2 2"/>
<line y1="453" x2="1728" y2="453" stroke="white" stroke-width="2" stroke-dasharray="2 2"/>
<line y1="457" x2="1728" y2="457" stroke="white" stroke-width="2" stroke-dasharray="2 2"/>
<line y1="461" x2="1728" y2="461" stroke="white" stroke-width="2" stroke-dasharray="2 2"/>
<line y1="465" x2="1728" y2="465" stroke="white" stroke-width="2" stroke-dasharray="2 2"/>
<line y1="469" x2="1728" y2="469" stroke="white" stroke-width="2" stroke-dasharray="2 2"/>
<line y1="473" x2="1728" y2="473" stroke="white" stroke-width="2" stroke-dasharray="2 2"/>
<line y1="477" x2="1728" y2="477" stroke="white" stroke-width="2" stroke-dasharray="2 2"/>
<line y1="481" x2="1728" y2="481" stroke="white" stroke-width="2" stroke-dasharray="2 2"/>
<line y1="485" x2="1728" y2="485" stroke="white" stroke-width="2" stroke-dasharray="2 2"/>
<line y1="489" x2="1728" y2="489" stroke="white" stroke-width="2" stroke-dasharray="2 2"/>
<line y1="493" x2="1728" y2="493" stroke="white" stroke-width="2" stroke-dasharray="2 2"/>
<line y1="497" x2="1728" y2="497" stroke="white" stroke-width="2" stroke-dasharray="2 2"/>
<line y1="501" x2="1728" y2="501" stroke="white" stroke-width="2" stroke-dasharray="2 2"/>
<line y1="505" x2="1728" y2="505" stroke="white" stroke-width="2" stroke-dasharray="2 2"/>
<line y1="509" x2="1728" y2="509" stroke="white" stroke-width="2" stroke-dasharray="2 2"/>
<line y1="513" x2="1728" y2="513" stroke="white" stroke-width="2" stroke-dasharray="2 2"/>
<line y1="517" x2="1728" y2="517" stroke="white" stroke-width="2" stroke-dasharray="2 2"/>
<line y1="521" x2="1728" y2="521" stroke="white" stroke-width="2" stroke-dasharray="2 2"/>
<line y1="525" x2="1728" y2="525" stroke="white" stroke-width="2" stroke-dasharray="2 2"/>
<line y1="529" x2="1728" y2="529" stroke="white" stroke-width="2" stroke-dasharray="2 2"/>
<line y1="533" x2="1728" y2="533" stroke="white" stroke-width="2" stroke-dasharray="2 2"/>
<line y1="537" x2="1728" y2="537" stroke="white" stroke-width="2" stroke-dasharray="2 2"/>
<line y1="541" x2="1728" y2="541" stroke="white" stroke-width="2" stroke-dasharray="2 2"/>
<line y1="545" x2="1728" y2="545" stroke="white" stroke-width="2" stroke-dasharray="2 2"/>
<line y1="549" x2="1728" y2="549" stroke="white" stroke-width="2" stroke-dasharray="2 2"/>
<line y1="553" x2="1728" y2="553" stroke="white" stroke-width="2" stroke-dasharray="2 2"/>
<line y1="557" x2="1728" y2="557" stroke="white" stroke-width="2" stroke-dasharray="2 2"/>
<line y1="561" x2="1728" y2="561" stroke="white" stroke-width="2" stroke-dasharray="2 2"/>
<line y1="565" x2="1728" y2="565" stroke="white" stroke-width="2" stroke-dasharray="2 2"/>
<line y1="569" x2="1728" y2="569" stroke="white" stroke-width="2" stroke-dasharray="2 2"/>
<line y1="573" x2="1728" y2="573" stroke="white" stroke-width="2" stroke-dasharray="2 2"/>
<line y1="577" x2="1728" y2="577" stroke="white" stroke-width="2" stroke-dasharray="2 2"/>
<line y1="581" x2="1728" y2="581" stroke="white" stroke-width="2" stroke-dasharray="2 2"/>
<line y1="585" x2="1728" y2="585" stroke="white" stroke-width="2" stroke-dasharray="2 2"/>
<line y1="589" x2="1728" y2="589" stroke="white" stroke-width="2" stroke-dasharray="2 2"/>
<line y1="593" x2="1728" y2="593" stroke="white" stroke-width="2" stroke-dasharray="2 2"/>
<line y1="597" x2="1728" y2="597" stroke="white" stroke-width="2" stroke-dasharray="2 2"/>
<line y1="601" x2="1728" y2="601" stroke="white" stroke-width="2" stroke-dasharray="2 2"/>
<line y1="605" x2="1728" y2="605" stroke="white" stroke-width="2" stroke-dasharray="2 2"/>
<line y1="609" x2="1728" y2="609" stroke="white" stroke-width="2" stroke-dasharray="2 2"/>
<line y1="613" x2="1728" y2="613" stroke="white" stroke-width="2" stroke-dasharray="2 2"/>
<line y1="617" x2="1728" y2="617" stroke="white" stroke-width="2" stroke-dasharray="2 2"/>
<line y1="621" x2="1728" y2="621" stroke="white" stroke-width="2" stroke-dasharray="2 2"/>
<line y1="625" x2="1728" y2="625" stroke="white" stroke-width="2" stroke-dasharray="2 2"/>
<line y1="629" x2="1728" y2="629" stroke="white" stroke-width="2" stroke-dasharray="2 2"/>
<line y1="633" x2="1728" y2="633" stroke="white" stroke-width="2" stroke-dasharray="2 2"/>
<line y1="637" x2="1728" y2="637" stroke="white" stroke-width="2" stroke-dasharray="2 2"/>
<line y1="641" x2="1728" y2="641" stroke="white" stroke-width="2" stroke-dasharray="2 2"/>
<line y1="645" x2="1728" y2="645" stroke="white" stroke-width="2" stroke-dasharray="2 2"/>
<line y1="649" x2="1728" y2="649" stroke="white" stroke-width="2" stroke-dasharray="2 2"/>
<line y1="653" x2="1728" y2="653" stroke="white" stroke-width="2" stroke-dasharray="2 2"/>
<line y1="657" x2="1728" y2="657" stroke="white" stroke-width="2" stroke-dasharray="2 2"/>
<line y1="661" x2="1728" y2="661" stroke="white" stroke-width="2" stroke-dasharray="2 2"/>
<line y1="665" x2="1728" y2="665" stroke="white" stroke-width="2" stroke-dasharray="2 2"/>
<line y1="669" x2="1728" y2="669" stroke="white" stroke-width="2" stroke-dasharray="2 2"/>
<line y1="673" x2="1728" y2="673" stroke="white" stroke-width="2" stroke-dasharray="2 2"/>
<line y1="677" x2="1728" y2="677" stroke="white" stroke-width="2" stroke-dasharray="2 2"/>
<line y1="681" x2="1728" y2="681" stroke="white" stroke-width="2" stroke-dasharray="2 2"/>
<line y1="685" x2="1728" y2="685" stroke="white" stroke-width="2" stroke-dasharray="2 2"/>
<line y1="689" x2="1728" y2="689" stroke="white" stroke-width="2" stroke-dasharray="2 2"/>
<line y1="693" x2="1728" y2="693" stroke="white" stroke-width="2" stroke-dasharray="2 2"/>
<line y1="697" x2="1728" y2="697" stroke="white" stroke-width="2" stroke-dasharray="2 2"/>
<line y1="701" x2="1728" y2="701" stroke="white" stroke-width="2" stroke-dasharray="2 2"/>
<line y1="705" x2="1728" y2="705" stroke="white" stroke-width="2" stroke-dasharray="2 2"/>
<line y1="709" x2="1728" y2="709" stroke="white" stroke-width="2" stroke-dasharray="2 2"/>
<line y1="713" x2="1728" y2="713" stroke="white" stroke-width="2" stroke-dasharray="2 2"/>
<line y1="717" x2="1728" y2="717" stroke="white" stroke-width="2" stroke-dasharray="2 2"/>
<line y1="721" x2="1728" y2="721" stroke="white" stroke-width="2" stroke-dasharray="2 2"/>
<line y1="725" x2="1728" y2="725" stroke="white" stroke-width="2" stroke-dasharray="2 2"/>
<line y1="729" x2="1728" y2="729" stroke="white" stroke-width="2" stroke-dasharray="2 2"/>
<line y1="733" x2="1728" y2="733" stroke="white" stroke-width="2" stroke-dasharray="2 2"/>
<line y1="737" x2="1728" y2="737" stroke="white" stroke-width="2" stroke-dasharray="2 2"/>
<line y1="741" x2="1728" y2="741" stroke="white" stroke-width="2" stroke-dasharray="2 2"/>
<line y1="745" x2="1728" y2="745" stroke="white" stroke-width="2" stroke-dasharray="2 2"/>
<line y1="749" x2="1728" y2="749" stroke="white" stroke-width="2" stroke-dasharray="2 2"/>
<line y1="753" x2="1728" y2="753" stroke="white" stroke-width="2" stroke-dasharray="2 2"/>
<line y1="757" x2="1728" y2="757" stroke="white" stroke-width="2" stroke-dasharray="2 2"/>
<line y1="761" x2="1728" y2="761" stroke="white" stroke-width="2" stroke-dasharray="2 2"/>
<line y1="765" x2="1728" y2="765" stroke="white" stroke-width="2" stroke-dasharray="2 2"/>
<line y1="769" x2="1728" y2="769" stroke="white" stroke-width="2" stroke-dasharray="2 2"/>
<line y1="773" x2="1728" y2="773" stroke="white" stroke-width="2" stroke-dasharray="2 2"/>
<line y1="777" x2="1728" y2="777" stroke="white" stroke-width="2" stroke-dasharray="2 2"/>
<line y1="781" x2="1728" y2="781" stroke="white" stroke-width="2" stroke-dasharray="2 2"/>
<line y1="785" x2="1728" y2="785" stroke="white" stroke-width="2" stroke-dasharray="2 2"/>
<line y1="789" x2="1728" y2="789" stroke="white" stroke-width="2" stroke-dasharray="2 2"/>
<line y1="793" x2="1728" y2="793" stroke="white" stroke-width="2" stroke-dasharray="2 2"/>
<line y1="797" x2="1728" y2="797" stroke="white" stroke-width="2" stroke-dasharray="2 2"/>
<line y1="801" x2="1728" y2="801" stroke="white" stroke-width="2" stroke-dasharray="2 2"/>
<line y1="805" x2="1728" y2="805" stroke="white" stroke-width="2" stroke-dasharray="2 2"/>
<line y1="809" x2="1728" y2="809" stroke="white" stroke-width="2" stroke-dasharray="2 2"/>
<line y1="813" x2="1728" y2="813" stroke="white" stroke-width="2" stroke-dasharray="2 2"/>
<line y1="817" x2="1728" y2="817" stroke="white" stroke-width="2" stroke-dasharray="2 2"/>
<line y1="821" x2="1728" y2="821" stroke="white" stroke-width="2" stroke-dasharray="2 2"/>
<line y1="825" x2="1728" y2="825" stroke="white" stroke-width="2" stroke-dasharray="2 2"/>
<line y1="829" x2="1728" y2="829" stroke="white" stroke-width="2" stroke-dasharray="2 2"/>
<line y1="833" x2="1728" y2="833" stroke="white" stroke-width="2" stroke-dasharray="2 2"/>
<line y1="837" x2="1728" y2="837" stroke="white" stroke-width="2" stroke-dasharray="2 2"/>
<line y1="841" x2="1728" y2="841" stroke="white" stroke-width="2" stroke-dasharray="2 2"/>
<line y1="845" x2="1728" y2="845" stroke="white" stroke-width="2" stroke-dasharray="2 2"/>
<line y1="849" x2="1728" y2="849" stroke="white" stroke-width="2" stroke-dasharray="2 2"/>
<line y1="853" x2="1728" y2="853" stroke="white" stroke-width="2" stroke-dasharray="2 2"/>
<line y1="857" x2="1728" y2="857" stroke="white" stroke-width="2" stroke-dasharray="2 2"/>
<line y1="861" x2="1728" y2="861" stroke="white" stroke-width="2" stroke-dasharray="2 2"/>
<line y1="865" x2="1728" y2="865" stroke="white" stroke-width="2" stroke-dasharray="2 2"/>
<line y1="869" x2="1728" y2="869" stroke="white" stroke-width="2" stroke-dasharray="2 2"/>
<line y1="873" x2="1728" y2="873" stroke="white" stroke-width="2" stroke-dasharray="2 2"/>
<line y1="877" x2="1728" y2="877" stroke="white" stroke-width="2" stroke-dasharray="2 2"/>
<line y1="881" x2="1728" y2="881" stroke="white" stroke-width="2" stroke-dasharray="2 2"/>
<line y1="885" x2="1728" y2="885" stroke="white" stroke-width="2" stroke-dasharray="2 2"/>
<line y1="889" x2="1728" y2="889" stroke="white" stroke-width="2" stroke-dasharray="2 2"/>
<line y1="893" x2="1728" y2="893" stroke="white" stroke-width="2" stroke-dasharray="2 2"/>
<line y1="897" x2="1728" y2="897" stroke="white" stroke-width="2" stroke-dasharray="2 2"/>
<line y1="901" x2="1728" y2="901" stroke="white" stroke-width="2" stroke-dasharray="2 2"/>
<line y1="905" x2="1728" y2="905" stroke="white" stroke-width="2" stroke-dasharray="2 2"/>
<line y1="909" x2="1728" y2="909" stroke="white" stroke-width="2" stroke-dasharray="2 2"/>
<line y1="913" x2="1728" y2="913" stroke="white" stroke-width="2" stroke-dasharray="2 2"/>
<line y1="917" x2="1728" y2="917" stroke="white" stroke-width="2" stroke-dasharray="2 2"/>
<line y1="921" x2="1728" y2="921" stroke="white" stroke-width="2" stroke-dasharray="2 2"/>
<line y1="925" x2="1728" y2="925" stroke="white" stroke-width="2" stroke-dasharray="2 2"/>
<line y1="929" x2="1728" y2="929" stroke="white" stroke-width="2" stroke-dasharray="2 2"/>
<line y1="933" x2="1728" y2="933" stroke="white" stroke-width="2" stroke-dasharray="2 2"/>
<line y1="937" x2="1728" y2="937" stroke="white" stroke-width="2" stroke-dasharray="2 2"/>
<line y1="941" x2="1728" y2="941" stroke="white" stroke-width="2" stroke-dasharray="2 2"/>
<line y1="945" x2="1728" y2="945" stroke="white" stroke-width="2" stroke-dasharray="2 2"/>
<line y1="949" x2="1728" y2="949" stroke="white" stroke-width="2" stroke-dasharray="2 2"/>
<line y1="953" x2="1728" y2="953" stroke="white" stroke-width="2" stroke-dasharray="2 2"/>
<line y1="957" x2="1728" y2="957" stroke="white" stroke-width="2" stroke-dasharray="2 2"/>
<line y1="961" x2="1728" y2="961" stroke="white" stroke-width="2" stroke-dasharray="2 2"/>
<line y1="965" x2="1728" y2="965" stroke="white" stroke-width="2" stroke-dasharray="2 2"/>
<line y1="969" x2="1728" y2="969" stroke="white" stroke-width="2" stroke-dasharray="2 2"/>
<line y1="973" x2="1728" y2="973" stroke="white" stroke-width="2" stroke-dasharray="2 2"/>
<line y1="977" x2="1728" y2="977" stroke="white" stroke-width="2" stroke-dasharray="2 2"/>
<line y1="981" x2="1728" y2="981" stroke="white" stroke-width="2" stroke-dasharray="2 2"/>
<line y1="985" x2="1728" y2="985" stroke="white" stroke-width="2" stroke-dasharray="2 2"/>
<line y1="989" x2="1728" y2="989" stroke="white" stroke-width="2" stroke-dasharray="2 2"/>
<line y1="993" x2="1728" y2="993" stroke="white" stroke-width="2" stroke-dasharray="2 2"/>
<line y1="997" x2="1728" y2="997" stroke="white" stroke-width="2" stroke-dasharray="2 2"/>
<line y1="1001" x2="1728" y2="1001" stroke="white" stroke-width="2" stroke-dasharray="2 2"/>
<line y1="1005" x2="1728" y2="1005" stroke="white" stroke-width="2" stroke-dasharray="2 2"/>
<line y1="1009" x2="1728" y2="1009" stroke="white" stroke-width="2" stroke-dasharray="2 2"/>
<line y1="1013" x2="1728" y2="1013" stroke="white" stroke-width="2" stroke-dasharray="2 2"/>
<line y1="1017" x2="1728" y2="1017" stroke="white" stroke-width="2" stroke-dasharray="2 2"/>
<line y1="1021" x2="1728" y2="1021" stroke="white" stroke-width="2" stroke-dasharray="2 2"/>
<line y1="1025" x2="1728" y2="1025" stroke="white" stroke-width="2" stroke-dasharray="2 2"/>
<line y1="1029" x2="1728" y2="1029" stroke="white" stroke-width="2" stroke-dasharray="2 2"/>
<line y1="1033" x2="1728" y2="1033" stroke="white" stroke-width="2" stroke-dasharray="2 2"/>
<line y1="1037" x2="1728" y2="1037" stroke="white" stroke-width="2" stroke-dasharray="2 2"/>
</mask>
<g mask="url(#mask0_170624_5348)">
<g filter="url(#filter0_f_170624_5348)">
<ellipse cx="112.182" cy="124.087" rx="207.182" ry="174.087" fill="url(#paint0_radial_170624_5348)"/>
</g>
<g filter="url(#filter1_f_170624_5348)">
<ellipse cx="207.182" cy="174.087" rx="207.182" ry="174.087" transform="matrix(1 0 0 -1 1313 1182)" fill="url(#paint1_radial_170624_5348)"/>
</g>
<g filter="url(#filter2_f_170624_5348)">
<ellipse cx="231" cy="814" rx="326" ry="368" fill="url(#paint2_radial_170624_5348)"/>
</g>
<g filter="url(#filter3_f_170624_5348)">
<ellipse cx="326" cy="368" rx="326" ry="368" transform="matrix(1 0 0 -1 1313 686)" fill="url(#paint3_radial_170624_5348)"/>
</g>
</g>
<defs>
<filter id="filter0_f_170624_5348" x="-195" y="-150" width="614.365" height="548.173" filterUnits="userSpaceOnUse" color-interpolation-filters="sRGB">
<feFlood flood-opacity="0" result="BackgroundImageFix"/>
<feBlend mode="normal" in="SourceGraphic" in2="BackgroundImageFix" result="shape"/>
<feGaussianBlur stdDeviation="50" result="effect1_foregroundBlur_170624_5348"/>
</filter>
<filter id="filter1_f_170624_5348" x="1213" y="733.827" width="614.365" height="548.173" filterUnits="userSpaceOnUse" color-interpolation-filters="sRGB">
<feFlood flood-opacity="0" result="BackgroundImageFix"/>
<feBlend mode="normal" in="SourceGraphic" in2="BackgroundImageFix" result="shape"/>
<feGaussianBlur stdDeviation="50" result="effect1_foregroundBlur_170624_5348"/>
</filter>
<filter id="filter2_f_170624_5348" x="-195" y="346" width="852" height="936" filterUnits="userSpaceOnUse" color-interpolation-filters="sRGB">
<feFlood flood-opacity="0" result="BackgroundImageFix"/>
<feBlend mode="normal" in="SourceGraphic" in2="BackgroundImageFix" result="shape"/>
<feGaussianBlur stdDeviation="50" result="effect1_foregroundBlur_170624_5348"/>
</filter>
<filter id="filter3_f_170624_5348" x="1213" y="-150" width="852" height="936" filterUnits="userSpaceOnUse" color-interpolation-filters="sRGB">
<feFlood flood-opacity="0" result="BackgroundImageFix"/>
<feBlend mode="normal" in="SourceGraphic" in2="BackgroundImageFix" result="shape"/>
<feGaussianBlur stdDeviation="50" result="effect1_foregroundBlur_170624_5348"/>
</filter>
<radialGradient id="paint0_radial_170624_5348" cx="0" cy="0" r="1" gradientUnits="userSpaceOnUse" gradientTransform="translate(112.182 124.087) rotate(90) scale(174.087 207.182)">
<stop stop-color="#5C5C5C"/>
<stop offset="1" stop-color="#171717"/>
</radialGradient>
<radialGradient id="paint1_radial_170624_5348" cx="0" cy="0" r="1" gradientUnits="userSpaceOnUse" gradientTransform="translate(207.182 174.087) rotate(90) scale(174.087 207.182)">
<stop stop-color="#5C5C5C"/>
<stop offset="1" stop-color="#171717"/>
</radialGradient>
<radialGradient id="paint2_radial_170624_5348" cx="0" cy="0" r="1" gradientUnits="userSpaceOnUse" gradientTransform="translate(231 814) rotate(90) scale(368 326)">
<stop stop-color="#5C5C5C"/>
<stop offset="1" stop-color="#171717"/>
</radialGradient>
<radialGradient id="paint3_radial_170624_5348" cx="0" cy="0" r="1" gradientUnits="userSpaceOnUse" gradientTransform="translate(326 368) rotate(90) scale(368 326)">
<stop stop-color="#5C5C5C"/>
<stop offset="1" stop-color="#171717"/>
</radialGradient>
</defs>
</svg>
